HIERARCHY
ROOT hip
{
  OFFSET 0 0 0
  CHANNELS 6 Xposition Yposition Zposition Zrotation Yrotation Xrotation
  JOINT abdomen
  {
    OFFSET 0 20.6881 -0.73152
    CHANNELS 3 Zrotation Xrotation Yrotation
    JOINT chest
    {
      OFFSET 0 11.7043 -0.48768
      CHANNELS 3 Zrotation Xrotation Yrotation
      JOINT neck
      {
        OFFSET 0 22.1894 -2.19456
        CHANNELS 3 Zrotation Xrotation Yrotation
        JOINT head
        {
          OFFSET -0.24384 7.07133 1.2192
          CHANNELS 3 Zrotation Xrotation Yrotation
          JOINT leftEye
          {
            OFFSET 4.14528 8.04674 8.04672
            CHANNELS 3 Zrotation Xrotation Yrotation
            End Site
            {
              OFFSET 1 0 0
            }
          }
          JOINT rightEye
          {
            OFFSET -3.6576 8.04674 8.04672
            CHANNELS 3 Zrotation Xrotation Yrotation
            End Site
            {
              OFFSET 1 0 0
            }
          }
        }
      }
      JOINT rCollar
      {
        OFFSET -2.68224 19.2634 -4.8768
        CHANNELS 3 Zrotation Xrotation Yrotation
        JOINT rShldr
        {
          OFFSET -8.77824 -1.95073 1.46304
          CHANNELS 3 Zrotation Xrotation Yrotation
          JOINT rForeArm
          {
            OFFSET -28.1742 -1.7115 0.48768
            CHANNELS 3 Zrotation Xrotation Yrotation
            JOINT rHand
            {
              OFFSET -22.5879 0.773209 7.07136
              CHANNELS 3 Zrotation Xrotation Yrotation
              JOINT rThumb1
              {
                OFFSET -1.2192 -0.487915 3.41376
                CHANNELS 3 Zrotation Xrotation Yrotation
                JOINT rThumb2
                {
                  OFFSET -3.37035 -0.52449 3.41376
                  CHANNELS 3 Zrotation Xrotation Yrotation
                  End Site
                  {
                    OFFSET -1.78271 -1.18214 1.43049
                  }
                }
              }
              JOINT rIndex1
              {
                OFFSET -7.75947 0.938293 5.60832
                CHANNELS 3 Zrotation Xrotation Yrotation
                JOINT rIndex2
                {
                  OFFSET -2.54057 -0.884171 1.56538
                  CHANNELS 3 Zrotation Xrotation Yrotation
                  End Site
                  {
                    OFFSET -1.62519 -0.234802 1.16502
                  }
                }
              }
              JOINT rMid1
              {
                OFFSET -8.24714 1.18213 3.41376
                CHANNELS 3 Zrotation Xrotation Yrotation
                JOINT rMid2
                {
                  OFFSET -3.10165 -0.590103 1.0647
                  CHANNELS 3 Zrotation Xrotation Yrotation
                  End Site
                  {
                    OFFSET -2.48547 -0.328903 0.83742
                  }
                }
              }
              JOINT rRing1
              {
                OFFSET -8.82822 0.546677 1.51678
                CHANNELS 3 Zrotation Xrotation Yrotation
                JOINT rRing2
                {
                  OFFSET -2.60934 -0.819778 -0.0198488
                  CHANNELS 3 Zrotation Xrotation Yrotation
                  End Site
                  {
                    OFFSET -2.33842 -0.294052 0.168128
                  }
                }
              }
              JOINT rPinky1
              {
                OFFSET -8.27202 -0.0477905 -0.4584
                CHANNELS 3 Zrotation Xrotation Yrotation
                JOINT rPinky2
                {
                  OFFSET -1.82734 -0.647385 -0.700984
                  CHANNELS 3 Zrotation Xrotation Yrotation
                  End Site
                  {
                    OFFSET -1.69225 -0.51767 -0.607171
                  }
                }
              }
            }
          }
        }
      }
      JOINT lCollar
      {
        OFFSET 2.68224 19.2634 -4.8768
        CHANNELS 3 Zrotation Xrotation Yrotation
        JOINT lShldr
        {
          OFFSET 8.77824 -1.95073 1.46304
          CHANNELS 3 Zrotation Xrotation Yrotation
          JOINT lForeArm
          {
            OFFSET 28.1742 -1.7115 0.48768
            CHANNELS 3 Zrotation Xrotation Yrotation
            JOINT lHand
            {
              OFFSET 22.5879 0.773209 7.07136
              CHANNELS 3 Zrotation Xrotation Yrotation
              JOINT lThumb1
              {
                OFFSET 1.2192 -0.487915 3.41376
                CHANNELS 3 Zrotation Xrotation Yrotation
                JOINT lThumb2
                {
                  OFFSET 3.37035 -0.52449 3.41376
                  CHANNELS 3 Zrotation Xrotation Yrotation
                  End Site
                  {
                    OFFSET 1.78271 -1.18214 1.43049
                  }
                }
              }
              JOINT lIndex1
              {
                OFFSET 7.75947 0.938293 5.60832
                CHANNELS 3 Zrotation Xrotation Yrotation
                JOINT lIndex2
                {
                  OFFSET 2.54057 -0.884171 1.56538
                  CHANNELS 3 Zrotation Xrotation Yrotation
                  End Site
                  {
                    OFFSET 1.62519 -0.234802 1.16502
                  }
                }
              }
              JOINT lMid1
              {
                OFFSET 8.24714 1.18213 3.41376
                CHANNELS 3 Zrotation Xrotation Yrotation
                JOINT lMid2
                {
                  OFFSET 3.10165 -0.590103 1.0647
                  CHANNELS 3 Zrotation Xrotation Yrotation
                  End Site
                  {
                    OFFSET 2.48547 -0.328903 0.83742
                  }
                }
              }
              JOINT lRing1
              {
                OFFSET 8.82822 0.546677 1.51678
                CHANNELS 3 Zrotation Xrotation Yrotation
                JOINT lRing2
                {
                  OFFSET 2.60934 -0.819778 -0.0198488
                  CHANNELS 3 Zrotation Xrotation Yrotation
                  End Site
                  {
                    OFFSET 2.33842 -0.294052 0.168128
                  }
                }
              }
              JOINT lPinky1
              {
                OFFSET 8.27202 -0.0477905 -0.4584
                CHANNELS 3 Zrotation Xrotation Yrotation
                JOINT lPinky2
                {
                  OFFSET 1.82734 -0.647385 -0.700984
                  CHANNELS 3 Zrotation Xrotation Yrotation
                  End Site
                  {
                    OFFSET 1.69225 -0.51767 -0.607171
                  }
                }
              }
            }
          }
        }
      }
    }
  }
  JOINT rButtock
  {
    OFFSET -8.77824 4.35084 1.2192
    CHANNELS 3 Zrotation Xrotation Yrotation
    JOINT rThigh
    {
      OFFSET 0 -1.70687 -2.19456
      CHANNELS 3 Zrotation Xrotation Yrotation
      JOINT rShin
      {
        OFFSET 0 -36.8199 0.73152
        CHANNELS 3 Zrotation Xrotation Yrotation
        JOINT rFoot
        {
          OFFSET 0.73152 -45.1104 -5.12064
          CHANNELS 3 Zrotation Xrotation Yrotation
          End Site
          {
            OFFSET -1.1221 -3.69964 12.103
          }
        }
      }
    }
  }
  JOINT lButtock
  {
    OFFSET 8.77824 4.35084 1.2192
    CHANNELS 3 Zrotation Xrotation Yrotation
    JOINT lThigh
    {
      OFFSET 0 -1.70687 -2.19456
      CHANNELS 3 Zrotation Xrotation Yrotation
      JOINT lShin
      {
        OFFSET 0 -36.8199 0.73152
        CHANNELS 3 Zrotation Xrotation Yrotation
        JOINT lFoot
        {
          OFFSET -0.73152 -45.1104 -5.12064
          CHANNELS 3 Zrotation Xrotation Yrotation
          End Site
          {
            OFFSET 1.1221 -3.69964 12.103
          }
        }
      }
    }
  }
}
MOTION
Frames:	4
Frame Time:	0.03333
0.0083596179355667 62.61886012197508 0.11657910949680568 -2.4420857429504395 -2.967740535736084 6.781922340393066 -2.7258541584014893 13.527830123901367 3.7434370517730713 2.6381638050079346 -9.196742057800293 1.360959529876709 -5.461649417877197 14.436678886413574 -3.2507712841033936 9.288908004760742 -22.12815284729004 -5.006984710693359 -0.06511522829532623 0.13826659321784973 -0.029456496238708496 -0.06075148284435272 0.18422554433345795 0.21453724801540375 0.5655192136764526 -0.17888042330741882 -0.0767144039273262 45.721290588378906 38.98659133911133 17.70076560974121 -26.38068199157715 -25.438920974731445 67.64739990234375 -1.7285165786743164 -8.605670928955078 -1.6953990459442139 -0.20590390264987946 -0.04089595004916191 -0.020670518279075623 -0.0033901415299624205 -0.0355338416993618 0.00496187387034297 -0.25756311416625977 -0.02004588581621647 -0.014632695354521275 7.882834434509277 5.29547643661499 0.39029499888420105 -0.0764269232749939 0.37610501050949097 -0.024866048246622086 2.766697645187378 0.8099846839904785 -0.21359314024448395 -0.015197081491351128 0.09159096330404282 -0.005926417652517557 10.281463623046875 1.0627779960632324 -0.2142084836959839 -0.017932701855897903 0.19917696714401245 -0.011277194134891033 2.2407283782958984 -0.8799005150794983 -0.2993987798690796 -0.063390351831913 -0.047027673572301865 0.09347963333129883 -57.34320068359375 37.25199508666992 -22.272470474243164 25.566425323486328 -23.49027442932129 -64.08686065673828 1.9253653287887573 -12.986817359924316 2.2124862670898438 0.038501907140016556 0.25100773572921753 -0.4631582498550415 -0.23294204473495483 -0.057071711868047714 0.047656409442424774 0.13613063097000122 -0.32098639011383057 0.22530712187290192 -7.744150161743164 5.302435874938965 -0.4692951440811157 -0.09312067180871964 0.029521197080612183 0.2844405174255371 -3.0038254261016846 1.171425223350525 -0.16082128882408142 -0.07126245647668839 0.14697153866291046 -0.04373510926961899 -10.562973976135254 0.5575646162033081 0.020855972543358803 -0.06980028003454208 0.14789341390132904 -0.11435850709676743 -2.2456939220428467 -0.9140774607658386 0.17421136796474457 -0.02767752669751644 0.040848258882761 0.06035225838422775 -25.097511291503906 -47.30970001220703 -20.510643005371094 -1.702751874923706 65.44392395019531 3.4947803020477295 -4.595977306365967 -10.64072322845459 -9.703409194946289 -0.08187340199947357 0.03508487343788147 0.05403124913573265 28.55451011657715 -49.69703674316406 21.920936584472656 1.9282890558242798 65.56443786621094 -2.9791557788848877 4.596678733825684 -12.211956977844238 12.74055004119873
0.008277655665526547 61.82112134767427 0.26707693841189467 -3.618436098098755 1.2099065780639648 11.454896926879883 -2.6105782985687256 14.716212272644043 4.102345943450928 2.6904468536376953 -10.027426719665527 1.1955006122589111 -4.5081000328063965 14.2608003616333 -3.5146102905273438 8.918346405029297 -21.725692749023438 -5.246336936950684 0.06620506197214127 -0.13062241673469543 -0.026888828724622726 0.1448313593864441 0.10547062009572983 -0.16674016416072845 -0.3154459297657013 0.005836999975144863 0.4631323516368866 46.634525299072266 39.156307220458984 18.023944854736328 -25.9715576171875 -27.174121856689453 69.0096435546875 -1.3182069063186646 -10.972214698791504 -1.2354743480682373 0.08469720929861069 -0.33050063252449036 0.036751020699739456 0.006172112189233303 -0.23896241188049316 0.05397865176200867 0.15233512222766876 -0.1995714008808136 -0.009326099418103695 7.911830902099609 5.711954593658447 0.284414142370224 -0.07372598350048065 -0.08765479177236557 -0.2698962986469269 2.7878129482269287 1.4040952920913696 0.33126571774482727 0.08246208727359772 0.13108263909816742 -0.2496621310710907 10.124743461608887 0.1616235375404358 -0.05222039297223091 0.01314495038241148 -0.20208770036697388 0.18400295078754425 2.1251862049102783 -0.44861236214637756 -0.009938604198396206 -0.1308622807264328 0.1578940600156784 0.23781509697437286 -55.01604080200195 39.92243576049805 -25.702211380004883 25.33468246459961 -23.578275680541992 -66.05242919921875 2.0155818462371826 -13.206082344055176 2.00365948677063 0.045806244015693665 -0.19434142112731934 0.7586449980735779 0.04451807588338852 -0.2240106165409088 -0.059297285974025726 0.12448468804359436 0.19151626527309418 -0.30573222041130066 -7.326800346374512 5.4607367515563965 -0.5675042867660522 0.13939036428928375 -0.007420097943395376 -0.2540730834007263 -2.959552526473999 0.5898762941360474 0.0019175105262547731 0.12849454581737518 -0.11266136914491653 -0.05270695686340332 -9.861749649047852 0.9066277742385864 -0.31905537843704224 -0.08679956942796707 -0.19329790771007538 0.12488602101802826 -2.327908515930176 -0.5391387343406677 -0.16203445196151733 -0.024160662665963173 -0.12539803981781006 0.1874924600124359 -25.324399948120117 -42.46696472167969 -20.190237045288086 -0.9171032309532166 64.26687622070312 2.09102201461792 -5.086318492889404 -11.254985809326172 -10.315179824829102 -0.11593057960271835 -0.0040600192733109 -0.04763154685497284 31.302120208740234 -44.24424743652344 22.379365921020508 0.8327001929283142 67.84346008300781 -2.0507869720458984 5.147977352142334 -12.387557029724121 12.522978782653809
-0.006885150848490197 66.3394963893128 0.5182622677809912 -0.5111351013183594 7.181252956390381 5.1140265464782715 -5.579221248626709 16.945850372314453 3.7524125576019287 3.7324111461639404 -9.764310836791992 0.8352491855621338 -5.844414234161377 14.94031810760498 -6.621776580810547 8.408573150634766 -24.405458450317383 -10.200034141540527 -0.3095144033432007 0.10617785900831223 -0.21086589992046356 -0.07408309727907181 0.2852652668952942 0.29303765296936035 0.2567684054374695 0.03704458102583885 0.06845226883888245 38.58753204345703 26.093656539916992 31.132694244384766 -23.461265563964844 -21.410945892333984 61.77342987060547 -1.2559821605682373 2.4082562923431396 0.47861945629119873 -0.42925503849983215 -0.031189164146780968 0.07875733077526093 0.049461089074611664 -0.14399762451648712 -0.5112602710723877 -0.37200596928596497 -0.07547082751989365 0.16672910749912262 7.53092098236084 5.220536231994629 0.11708328872919083 0.1903979331254959 -0.29109466075897217 -0.17882323265075684 2.578108310699463 0.923315703868866 -0.3134098947048187 -0.27979111671447754 0.0646074190735817 -0.5189235806465149 10.302155494689941 0.7672345042228699 -0.5448776483535767 0.0347900427877903 0.14738614857196808 0.10912138223648071 2.122657299041748 -0.6919963359832764 -0.1089429184794426 -0.3457218110561371 0.563147246837616 0.16689249873161316 -56.982295989990234 52.22990798950195 -21.767478942871094 26.46495246887207 -32.042999267578125 -74.7925033569336 3.006648063659668 -33.55384826660156 5.864873886108398 -0.09755396097898483 0.2900029420852661 -0.03236744552850723 -0.31150251626968384 0.12889637053012848 -0.2594222128391266 0.4685164988040924 0.1656223088502884 0.550739049911499 -7.825439929962158 5.468958854675293 -0.5198706984519958 0.25455227494239807 -0.18028002977371216 0.48777225613594055 -2.6813716888427734 0.9247252941131592 -0.2877626121044159 0.21215684711933136 -0.11519471555948257 0.1869029998779297 -10.698441505432129 0.5123773813247681 0.17514565587043762 -0.06947401911020279 0.07834881544113159 0.05762999504804611 -2.6768665313720703 -0.5105983018875122 -0.02967388927936554 -0.2975979149341583 0.37192627787590027 0.26185572147369385 -28.758665084838867 -49.77354049682617 -22.72906494140625 -2.116856575012207 69.58341217041016 2.8037314414978027 -2.3897223472595215 -5.131453514099121 -4.654543399810791 0.11796478927135468 0.05500723421573639 0.37811312079429626 19.16242790222168 -32.24583053588867 13.010505676269531 1.23235023021698 60.8517951965332 -2.8767127990722656 7.383225917816162 -12.717299461364746 19.066553115844727
-0.25134189011147784 68.23562520480004 0.614539547104433 1.7301580905914307 10.891379356384277 4.059042453765869 -8.030450820922852 18.885271072387695 4.778901100158691 3.739905834197998 -10.487123489379883 1.4020978212356567 -6.1017680168151855 14.111186981201172 -5.397894859313965 6.298267364501953 -26.727519989013672 -10.157384872436523 -0.5071892142295837 0.11865748465061188 -0.28826695680618286 0.10326637327671051 -0.06355520337820053 -0.09772401303052902 0.32079780101776123 0.36574915051460266 -0.15880458056926727 31.563156127929688 10.186203002929688 42.29768753051758 -24.489126205444336 -21.660629272460938 60.636104583740234 -0.34477174282073975 16.403642654418945 2.754086971282959 0.14620770514011383 0.0650852620601654 0.27852314710617065 -0.08290648460388184 -0.3533753752708435 -0.07873260229825974 0.3356412947177887 -0.23889794945716858 0.15067486464977264 7.814088821411133 4.917241096496582 0.7870765328407288 0.03489881753921509 -0.3685971200466156 0.2587606608867645 3.233295440673828 0.8522787094116211 -0.1424526870250702 -0.02403375878930092 -0.1938750296831131 -0.31118258833885193 10.05488109588623 0.9263371229171753 0.22924569249153137 0.5226220488548279 -0.17209473252296448 0.22059127688407898 1.9033366441726685 -0.8076889514923096 0.19942262768745422 -0.3710426986217499 1.0656321048736572 0.20637696981430054 -39.421112060546875 66.63574981689453 -41.319435119628906 29.038320541381836 -45.3973388671875 -85.99456787109375 5.512519836425781 -54.701866149902344 12.261819839477539 0.04721036180853844 -0.30533865094184875 -0.052195947617292404 0.03913867473602295 0.20946648716926575 -0.29406502842903137 -0.21845237910747528 0.5417373776435852 -0.03816286846995354 -7.78267240524292 6.157615661621094 -0.4706798493862152 -0.11362282931804657 0.041410576552152634 -0.2379113882780075 -3.5686304569244385 0.302122563123703 -0.0928150936961174 0.40625879168510437 -0.6972845792770386 0.2323170006275177 -11.033708572387695 0.48775866627693176 0.3818189203739166 -0.30929651856422424 -0.02040163427591324 -0.1437489092350006 -2.0239105224609375 -0.5793707966804504 0.2234046459197998 -0.05818026885390282 0.1863793134689331 0.06917896121740341 -45.18183135986328 -60.476566314697266 -42.317989349365234 -6.499022006988525 78.41507720947266 6.7041778564453125 -1.8264849185943604 2.1185615062713623 -2.8965137004852295 -0.0011659110896289349 -0.4925905764102936 0.06616967916488647 9.88257122039795 -26.54498291015625 11.737112998962402 1.8818342685699463 64.04450988769531 -3.0689237117767334 9.249557495117188 -14.257657051086426 26.041532516479492
